<?xml version="1.0" encoding="utf-8"?>
<!-- Svg Vector Icons : http://www.onlinewebfonts.com/icon -->
<!DOCTYPE svg PUBLIC "-//W3C//DTD SVG 1.1//EN" "http://www.w3.org/Graphics/SVG/1.1/DTD/svg11.dtd">
<svg version="1.1" xmlns="http://www.w3.org/2000/svg" xmlns:xlink="http://www.w3.org/1999/xlink" x="0px" y="0px" viewBox="0 0 1000 1000" enable-background="new 0 0 1000 1000" xml:space="preserve">
<metadata> Svg Vector Icons : http://www.onlinewebfonts.com/icon </metadata>
<g><path d="M893.3,403.3H376.9c-0.1-63.8-0.3-127.5-0.3-191.3c0-26.8-21.3-46.7-47-42.9c-14.4,2.1-25.1,11.1-35.1,21c-31.4,31.4-62.8,62.7-94.1,94.1C144.1,340.6,87.6,397,31.3,453.4c-28.5,28.5-28.4,61.7,0.2,90.4c6.4,6.4,12.7,12.7,19.1,19.1c84.9,84.8,169.7,169.5,254.6,254.2c14.1,14.1,31.5,18,47.4,10.1c16.4-8.1,24.1-21.5,24-40.2c-0.2-63.5,0-127,0.2-190.5h516.5c53.4,0,96.7-43.3,96.7-96.7C990,446.6,946.7,403.3,893.3,403.3z"/></g>
</svg>