<?xml version="1.0" encoding="utf-8"?>
<!-- Svg Vector Icons : http://www.onlinewebfonts.com/icon -->
<!DOCTYPE svg PUBLIC "-//W3C//DTD SVG 1.1//EN" "http://www.w3.org/Graphics/SVG/1.1/DTD/svg11.dtd">
<svg version="1.1" xmlns="http://www.w3.org/2000/svg" xmlns:xlink="http://www.w3.org/1999/xlink" x="0px" y="0px" viewBox="0 0 1000 1000" enable-background="new 0 0 1000 1000" xml:space="preserve">
<metadata> Svg Vector Icons : http://www.onlinewebfonts.com/icon </metadata>
<g><g transform="translate(0.000000,511.000000) scale(0.100000,-0.100000)"><path d="M713.7,2409.8c-286.1-92-502.1-316.1-584.1-604.2c-30-98-32-296.1-28-1740.4l6-1628.4l44-110c92-222.1,284.1-414.1,506.1-506.1l110-44h3813h3810.9l150,74c184.1,92,336.1,244,420.1,424.1c72,156.1,98,300.1,98,568.1V-953h362.1H9784l58,58l58,58v944.2v944.2l-58,58l-58,58h-362.1h-362.1v206c0,266.1-26,410.1-98,566.1c-84,180-236.1,332.1-420.1,424.1l-150,74l-3780.9,4C985.8,2445.8,823.7,2443.8,713.7,2409.8z M8301.6,2003.7c104-30,226.1-136,276.1-242.1c42-86,42-106,42-1656.4c0-1480.4-2-1572.4-38-1650.4c-46-102-180-216-288.1-246.1c-62-18-1036.3-22-3767-18l-3682.9,6l-98,60c-60,38-120,98-158,158l-60,98V105.2v1592.4l56,94c60,102,140,168,252.1,208.1C935.7,2035.7,8183.6,2039.7,8301.6,2003.7z M9479.9,107.3v-640.2h-210h-210.1v640.2v640.2h210.1h210V107.3z"/><path d="M1505.9,1587.6c-24-8-62-42-86-72c-42-54-42-54-42-1406.3c0-1500.4-8-1416.4,132-1474.4c102-42,926.2-40,1018.3,4c134,62,130,22,130,1468.4c0,1446.4,4,1406.3-130,1468.4c-54,26-146,32-524.1,30C1754,1605.6,1527.9,1597.6,1505.9,1587.6z M2218.1,107.3V-953H2008H1798V107.3v1060.3H2008h210.1V107.3z"/><path d="M3204.3,1577.6c-130-56-126-10-126-1470.4c0-1466.4-4-1416.4,130-1472.4c98-40,922.2-40,1020.3,0c134,56,130,6,130,1472.4s4,1416.3-130,1472.4C4132.6,1619.6,3298.3,1619.6,3204.3,1577.6z M3938.5,107.3V-953h-220.1h-220.1V107.3v1060.3h220.1h220.1V107.3z"/><path d="M4904.7,1575.6c-130-64-126-26-126-1468.4c0-1446.4-4-1406.4,130-1468.4c92-44,916.2-46,1018.2-4c140,58,132-28,132,1476.4v1356.3l-58,64l-58,66l-488.1,6C5042.8,1607.6,4958.8,1603.6,4904.7,1575.6z M5638.9,107.3V-953h-210h-210.1V107.3v1060.3h210.1h210V107.3z"/></g></g>
</svg>