<?xml version="1.0" encoding="utf-8"?>
<!-- Svg Vector Icons : http://www.onlinewebfonts.com/icon -->
<!DOCTYPE svg PUBLIC "-//W3C//DTD SVG 1.1//EN" "http://www.w3.org/Graphics/SVG/1.1/DTD/svg11.dtd">
<svg version="1.1" xmlns="http://www.w3.org/2000/svg" xmlns:xlink="http://www.w3.org/1999/xlink" x="0px" y="0px" viewBox="0 0 1000 1000" enable-background="new 0 0 1000 1000" xml:space="preserve">
<metadata> Svg Vector Icons : http://www.onlinewebfonts.com/icon </metadata>
<g><g transform="translate(0.000000,511.000000) scale(0.100000,-0.100000)"><path d="M1759.5,3102.4c-145.6-21.9-279.2-91.7-394.9-209.4c-161.5-159.5-195.4-251.3-207.4-558.4l-12-259.3l-249.3-10c-231.3-10-261.3-15.9-382.9-75.8c-155.5-75.8-277.2-201.4-351-359l-53.8-113.7l-6-1882.6c-6-2090-10-2000.2,125.6-2205.7c115.7-171.5,279.2-273.2,490.6-309.1c163.5-25.9,7356.8-27.9,7518.3-2c233.3,39.9,424.8,175.5,538.4,384.9c65.8,121.6,67.8,133.6,73.8,388.9l8,261.2l253.3,8c237.3,6,259.3,10,382.9,69.8c157.5,77.8,279.2,203.4,353,360.9L9900-1295V629.5V2554l-61.8,129.6c-107.7,227.3-295.2,372.9-536.5,416.8C9166.1,3126.3,1931,3128.3,1759.5,3102.4z M9229.9,2436.3c15.9-19.9,19.9-510.5,17.9-1818.8l-6-1792.8l-193.4-6l-195.4-6l-4,1362.1l-6,1362.1l-51.8,109.7c-65.8,139.6-205.4,281.2-353,353l-113.7,55.8l-3264.6,6l-3266.6,4v175.5c0,109.7,8,183.5,23.9,199.4C1855.2,2478.2,9198,2474.2,9229.9,2436.3z M8190.9,1383.3c31.9-31.9,35.9-3527.8,4-3587.7c-21.9-37.9-83.8-37.9-3705.3-37.9c-2839.8,0-3691.4,6-3709.3,23.9c-18,18-23.9,448.7-23.9,1810.8c0,983.2,6,1794.8,14,1800.8c6,8,1673.2,14,3705.3,14C7319.4,1407.3,8173,1401.3,8190.9,1383.3z"/><path d="M4326.1,1034.3c-510.5-63.8-927.3-359-1146.7-813.6c-414.8-853.5,79.8-1858.7,1009.1-2054.1c694-145.6,1407.9,251.3,1651.2,921.3c259.3,706-45.9,1461.8-729.9,1806.8C4906.4,998.4,4545.4,1062.3,4326.1,1034.3z M4553.4,551.7c17.9-19.9,37.9-67.8,45.9-107.7c10-67.8,14-69.8,119.7-83.8c177.5-21.9,257.3-139.6,169.5-249.3c-37.9-47.9-47.9-47.9-303.1-27.9c-149.6,10-175.5,8-217.4-25.9c-53.8-43.9-63.8-133.6-17.9-177.5c14-14,129.6-71.8,255.3-127.6c165.5-71.8,249.3-121.6,303.1-177.5c215.4-229.3,111.7-586.3-205.4-702c-117.7-43.9-117.7-43.9-117.7-123.7c0-97.7-43.9-153.6-121.7-153.6c-75.8,0-117.7,47.9-117.7,139.6c0,83.8,6,79.8-197.4,111.7c-93.7,13.9-201.4,97.7-201.4,155.5c0,59.8,47.9,133.6,97.7,145.6c25.9,6,87.7,2,135.6-10c47.9-14,149.6-23.9,227.3-23.9c121.7,0,145.6,6,187.5,49.9c27.9,25.9,49.9,65.8,49.9,87.8c0,63.8-93.7,155.5-195.4,193.4c-277.2,99.7-408.8,185.5-474.6,311.1c-41.9,79.8-35.9,247.3,14,351c47.9,97.7,163.5,191.5,281.2,227.4c67.8,19.9,75.8,29.9,75.8,85.8C4346,553.7,4477.6,635.5,4553.4,551.7z"/></g></g>
</svg>