<?xml version="1.0" encoding="utf-8"?>
<!-- Svg Vector Icons : http://www.onlinewebfonts.com/icon -->
<!DOCTYPE svg PUBLIC "-//W3C//DTD SVG 1.1//EN" "http://www.w3.org/Graphics/SVG/1.1/DTD/svg11.dtd">
<svg version="1.1" xmlns="http://www.w3.org/2000/svg" xmlns:xlink="http://www.w3.org/1999/xlink" x="0px" y="0px" viewBox="0 0 1000 1000" enable-background="new 0 0 1000 1000" xml:space="preserve">
<metadata> Svg Vector Icons : http://www.onlinewebfonts.com/icon </metadata>
<g><g><g><path d="M956.2,195.9h8.4c14,0,25.3-11.4,25.3-25.3V52.2c0-14-11.4-25.3-25.3-25.3H35.3c-14,0-25.3,11.4-25.3,25.3v118.3c0,14,11.3,25.3,25.3,25.3h8.4v684.3c0,9.1,4.9,17.5,12.8,22l118.3,67.6c3.9,2.2,8.2,3.3,12.6,3.3c4.4,0,8.8-1.1,12.7-3.4c7.8-4.5,12.6-12.9,12.6-21.9V195.9h16.9v684.3c0,9.1,4.9,17.5,12.8,22l118.3,67.6c3.9,2.2,8.2,3.3,12.6,3.3c4.4,0,8.8-1.1,12.7-3.4c7.8-4.5,12.6-12.9,12.6-21.9V195.9h16.9v684.3c0,9.1,4.9,17.5,12.8,22l118.3,67.6c3.9,2.2,8.2,3.3,12.6,3.3c4.4,0,8.8-1.1,12.7-3.4c7.8-4.5,12.6-12.9,12.6-21.9V195.9h16.9v684.3c0,9.1,4.9,17.5,12.8,22l118.3,67.6c3.9,2.2,8.2,3.3,12.6,3.3c4.4,0,8.8-1.1,12.7-3.4c7.8-4.5,12.6-12.9,12.6-21.9V195.9h16.9v684.3c0,9.1,4.9,17.5,12.8,22l118.3,67.6c3.9,2.2,8.2,3.3,12.6,3.3c4.4,0,8.8-1.1,12.7-3.4c7.8-4.5,12.6-12.9,12.6-21.9V195.9L956.2,195.9z M652.1,145.2h-50.7h-16.9h-50.7h-67.6h-50.7h-16.9h-50.7h-67.6h-50.7h-16.9h-50.7H94.5H60.7V96V77.6h878.6V96v49.1h-33.8h-67.6h-50.7h-16.9h-50.7H652.1z M162.1,904.1l-67.6-38.6V195.9h67.6V904.1z M347.9,904.1l-67.6-38.6V195.9h67.6V904.1z M533.8,904.1l-67.6-38.6V195.9h67.6V904.1z M719.7,904.1l-67.6-38.6V195.9h67.6V904.1z M905.5,904.1l-67.6-38.6V195.9h67.6V904.1z"/></g></g><g></g><g></g><g></g><g></g><g></g><g></g><g></g><g></g><g></g><g></g><g></g><g></g><g></g><g></g><g></g></g>
</svg>