<?xml version="1.0" encoding="utf-8"?>
<!-- Svg Vector Icons : http://www.onlinewebfonts.com/icon -->
<!DOCTYPE svg PUBLIC "-//W3C//DTD SVG 1.1//EN" "http://www.w3.org/Graphics/SVG/1.1/DTD/svg11.dtd">
<svg version="1.1" xmlns="http://www.w3.org/2000/svg" xmlns:xlink="http://www.w3.org/1999/xlink" x="0px" y="0px" viewBox="0 0 1000 1000" enable-background="new 0 0 1000 1000" xml:space="preserve">
<metadata> Svg Vector Icons : http://www.onlinewebfonts.com/icon </metadata>
<g><g transform="translate(0.000000,511.000000) scale(0.100000,-0.100000)"><path d="M1398.1,4339.6c-55.5-24.9-76.6-47.9-109.1-128.3c-67-170.4-790.7-2929.3-790.7-3011.6c0-90,36.4-168.5,105.3-233.6c38.3-36.4,373.3-132.1,1681-480.6c1150.7-306.3,1637-444.2,1638.9-463.3c1.9-15.3-105.3-612.7-239.3-1328.7l-243.2-1301.9l-748.6-5.7l-750.5-3.8l-7.7,367.6c-7.7,294.9-17.2,390.6-45.9,474.8c-47.9,141.7-172.3,268-323.6,327.4c-109.1,42.1-141.7,44-664.4,51.7c-518.8,5.8-553.3,3.8-637.5-32.5c-68.9-30.6-95.7-55.5-124.4-120.6c-36.4-78.5-38.3-134-38.3-1221.5c0-1087.5,1.9-1143,38.3-1221.5c28.7-65.1,55.5-90,126.4-120.6c82.3-36.4,118.7-38.3,606.9-32.5l520.8,5.7l118.7,55.5c141.7,65.1,275.7,199.1,333.1,331.2c46,105.3,93.8,337,93.8,448v74.7h905.6c899.9,0,905.6,0,989.8,44c47.9,23,99.6,68.9,116.8,99.6c21.1,34.5,135.9,618.4,292.9,1483.8c143.6,785,260.4,1434,260.4,1441.7c0,7.7,11.5,13.4,26.8,13.4c13.4,0,463.3-118.7,999.4-262.3l974.5-262.3l258.5-1.9c287.2,0,425,32.5,601.2,143.6l88.1,57.4l758.2-201c417.4-111,792.7-201,834.8-201c105.3,0,193.4,46,252.7,130.2c36.4,53.6,122.5,340.8,327.4,1091.3c271.9,997.5,302.5,1146.8,258.5,1231.1c-26.8,47.9-145.5,107.2-268,134c-51.7,11.5-95.7,23-95.7,26.8s19.1,40.2,42.1,78.5c84.2,143.6,36.4,338.9-105.3,426.9c-80.4,47.9-7815.3,2127.1-7913,2125.2C1503.4,4368.3,1438.3,4354.9,1398.1,4339.6z M4570.5,2943.8c1474.2-396.3,3004-806,3398.4-913.3c394.4-105.3,727.5-197.2,739-204.9C8742.4,1806.6,7157.1,49,7042.2-21.8c-72.8-46-120.6-59.4-220.2-65.1c-114.9-7.7-248.9,24.9-1581.4,384.8c-800.3,216.4-2040.9,549.5-2757,742.9c-716,191.5-1303.8,350.4-1305.7,352.3c-3.8,1.9,578.2,2205.6,599.3,2266.9c5.7,17.2,26.8,23,61.3,15.3C1867.2,3669.5,3096.3,3340.2,4570.5,2943.8z M9186.6,1207.3c5.8-7.7-373.3-1411-386.7-1428.3C8796-226.7,7965.1,5,7951.7,14.5c-3.8,3.8,241.3,281.5,543.8,618.4l549.5,610.8l67-13.4C9148.3,1220.7,9180.8,1211.2,9186.6,1207.3z M1287-2577.8c0-407.8,5.7-578.2,21.1-587.8c30.6-19.1,7.7-268-30.6-325.5c-28.7-44-36.4-46-296.8-46h-268v765.8v765.8h287.2H1287V-2577.8z"/></g></g>
</svg>