<?xml version="1.0" encoding="utf-8"?>
<!-- Svg Vector Icons : http://www.onlinewebfonts.com/icon -->
<!DOCTYPE svg PUBLIC "-//W3C//DTD SVG 1.1//EN" "http://www.w3.org/Graphics/SVG/1.1/DTD/svg11.dtd">
<svg version="1.1" xmlns="http://www.w3.org/2000/svg" xmlns:xlink="http://www.w3.org/1999/xlink" x="0px" y="0px" viewBox="0 0 1000 1000" enable-background="new 0 0 1000 1000" xml:space="preserve">
<metadata> Svg Vector Icons : http://www.onlinewebfonts.com/icon </metadata>
<g><g transform="translate(0.000000,511.000000) scale(0.100000,-0.100000)"><path d="M4891.5,4984.5c-773.7-41.8-1419.9-196.6-2038.9-495.6c-338.8-163.1-407.8-221.7-407.8-351.3c0-73.2,12.5-104.6,58.5-146.4c106.7-102.5,138-98.3,489.3,75.3C3641,4384.3,4291.3,4539,4996,4539c230,0,529-23,690.1-52.3c274-50.2,397.3-58.5,451.7-31.4c127.6,69,144.3,273.9,29.3,359.7C6056.2,4896.6,5255.3,5003.3,4891.5,4984.5z"/><path d="M7244,4342.5c-81.6-35.6-115-77.4-129.7-165.2c-16.7-110.8,35.6-186.1,200.8-284.4c679.6-403.6,1399-1189.9,1702.2-1863.2c29.3-62.7,71.1-156.8,94.1-211.2c23-52.3,69-169.4,98.3-261.4c69-204.9,140.1-280.2,263.5-280.2c64.8,0,98.3,14.6,146.4,60.6c83.6,83.6,79.5,181.9-14.6,432.9c-374.3,999.6-1014.2,1798.4-1949,2432c-129.7,87.8-288.6,169.4-328.3,167.3C7317.2,4369.7,7277.5,4357.1,7244,4342.5z"/><path d="M1462,3462.1c-117.1-62.7-531.2-604.3-729.8-951.5c-393.1-683.8-619-1491-631.5-2248C96.4,3.3,111.1-40.6,224-95c85.7-39.7,171.5-23,240.5,46c62.7,60.7,77.4,129.7,77.4,340.9c0,464.2,150.6,1110.4,376.4,1614.4c173.6,389,426.6,784.2,713.1,1108.3c146.4,167.3,169.4,219.6,142.2,322C1738,3466.3,1583.3,3529,1462,3462.1z"/><path d="M5025.3,3096.1c-25.1-8.4-64.8-43.9-89.9-75.3c-39.7-50.2-43.9-81.6-43.9-353.4v-299l-161-14.6c-441.2-41.8-752.8-255.1-949.4-648.3c-188.2-380.6-186.1-769.5,2.1-1154.3c161-328.3,449.6-539.5,867.8-635.7c104.6-25.1,200.8-48.1,215.4-52.3c18.8-6.3,25.1-207,25.1-918v-909.7h-98.3c-202.8,2.1-466.3,133.8-675.4,338.8c-179.8,173.6-234.2,194.5-357.6,129.6c-75.3-37.6-131.7-156.8-112.9-234.2c6.3-27.2,66.9-108.7,131.7-175.7c286.5-301.1,683.8-497.7,1007.9-497.7h104.6v-175.7c0-158.9,6.3-184,54.4-240.5c66.9-79.5,167.3-102.5,257.2-56.4c100.4,52.3,127.5,129.6,127.5,353.4v196.6l87.8,29.3c217.5,71.1,541.6,345,692.2,583.4c165.2,265.6,261.4,646.2,236.3,949.4c-14.6,184-89.9,430.8-167.3,552.1C6058.3-19.7,5820,133,5529.3,202c-79.5,18.8-158.9,37.6-171.5,41.8c-20.9,6.3-27.2,179.8-27.2,782.1c0,424.5,6.3,773.7,12.6,773.7c31.4,0,156.8-100.4,271.9-221.7c117.1-123.4,135.9-133.8,215.4-133.8c165.2,0,261.4,129.7,211.2,282.3c-48.1,144.3-355.5,407.8-600.2,512.3l-110.8,46v328.3c0,288.6-4.2,334.6-41.8,395.2C5230.2,3104.5,5127.8,3138,5025.3,3096.1z M4891.5,1120c0-629.4-6.3-805.1-25.1-805.1c-64.8,2.1-299,66.9-378.5,106.7c-257.2,129.6-412,418.2-412,775.8c0,366,200.8,621.1,547.9,696.4c71.1,14.6,163.1,29.3,200.7,29.3l66.9,2.1V1120z M5615-291.5c140.1-69,211.2-152.7,267.7-322.1c37.6-110.8,43.9-372.2,10.4-514.4c-33.5-152.6-161-384.8-282.3-518.6c-100.4-110.8-227.9-213.3-267.7-213.3c-6.3,0-12.6,372.2-12.6,828.1v828.1l79.5-12.6C5451.9-224.6,5546-258.1,5615-291.5z"/><path d="M9581.9,314.9c-96.2-37.6-131.7-138-131.7-359.7c0-460.1-150.6-1146-343-1574.6c-16.7-33.5-54.4-119.2-85.7-188.2c-133.8-297-399.4-694.3-673.4-1010c-71.1-83.7-135.9-173.6-144.3-200.8c-39.7-158.9,144.3-309.5,301.1-244.6c71.1,29.3,238.4,217.5,451.7,501.9c562.5,757,869.9,1614.4,932.7,2607.7c16.7,257.2,14.6,317.9-12.5,366C9824.5,314.9,9694.9,358.8,9581.9,314.9z"/><path d="M468.7-1059c-62.7-14.6-150.6-106.7-163.1-169.4c-23-119.2,223.7-729.8,451.7-1116.7c382.7-648.3,993.3-1275.6,1643.7-1683.4c238.4-150.6,376.4-152.6,451.7-6.3c71.1,135.9,20.9,236.3-175.7,353.4c-681.7,405.7-1399,1189.9-1704.3,1869.5c-29.3,64.8-77.4,169.4-104.6,230c-27.2,58.5-71.1,177.7-98.3,261.4C705-1115.5,604.6-1029.7,468.7-1059z"/><path d="M7116.5-3798.4c-673.4-351.3-1380.2-529.1-2120.4-529.1c-299,0-639.9,33.5-867.8,85.7c-46,8.4-123.4,18.8-173.6,18.8c-246.8,0-297-338.8-60.7-416.2c213.3-71.1,708.9-127.5,1102.1-127.5c535.3,0,1035.1,81.6,1557.9,253c355.5,117.1,884.6,368.1,949.4,451.7c52.3,64.8,56.4,186.1,10.4,255.1c-31.4,43.9-144.3,106.6-192.4,106.6C7310.9-3700.1,7218.9-3744.1,7116.5-3798.4z"/></g></g>
</svg>