<?xml version="1.0" encoding="utf-8"?>
<!-- Svg Vector Icons : http://www.onlinewebfonts.com/icon -->
<!DOCTYPE svg PUBLIC "-//W3C//DTD SVG 1.1//EN" "http://www.w3.org/Graphics/SVG/1.1/DTD/svg11.dtd">
<svg version="1.1" xmlns="http://www.w3.org/2000/svg" xmlns:xlink="http://www.w3.org/1999/xlink" x="0px" y="0px" viewBox="0 0 1000 1000" enable-background="new 0 0 1000 1000" xml:space="preserve">
<metadata> Svg Vector Icons : http://www.onlinewebfonts.com/icon </metadata>
<g><g transform="translate(0.000000,511.000000) scale(0.100000,-0.100000)"><path d="M4419,4957.8c-631-138.2-1195.9-436.7-1624.6-861.4c-426.7-422.7-699.1-955.6-841.4-1638.7c-66.1-314.5-72.1-633-22-959.6c108.2-695.1,354.6-1205.9,833.4-1720.8c138.2-148.3,184.3-222.4,472.8-761.2c176.3-328.5,336.5-619,356.6-645l36.1-46.1h1358.2c1055.7,0,1364.2,6,1388.3,26c18,12,180.3,302.5,364.6,641c294.5,548.9,348.5,635,474.8,771.3c446.7,478.8,691.1,959.6,831.3,1636.7c100.2,486.8,66.1,923.5-116.2,1482.4C7624.2,3824,6868.9,4571.2,5921.4,4865.7c-336.6,106.2-520.8,134.2-901.5,142.2C4707.5,5013.9,4659.4,5009.9,4419,4957.8z M5440.7,4665.3c593-96.2,1097.8-360.6,1528.5-795.3c392.7-396.6,657.1-903.5,759.2-1458.4c48.1-266.4,48.1-809.3,0-1041.7c-110.2-514.8-334.5-939.5-717.1-1354.2c-180.3-194.3-202.4-230.4-498.8-779.2c-170.3-314.5-324.6-583-344.6-593c-40.1-22-176.3-4-176.3,22.1c0,8,100.2,723.2,220.4,1588.6c122.2,865.4,220.4,1596.6,220.4,1622.6c0,46.1-10,52.1-134.2,70.1c-76.1,10-142.2,16-150.2,12c-6-4-18-46.1-26-90.1l-14-82.1l-74.1,70.1c-96.2,92.1-142.2,114.2-242.4,114.2c-124.2,0-212.4-52.1-300.5-174.3c-42.1-60.1-82.1-108.2-90.2-108.2c-8,0-48.1,48.1-90.1,108.2c-90.2,124.2-176.3,174.3-304.5,174.3c-110.2,0-194.3-52.1-290.5-180.3c-40.1-54.1-80.1-100.2-88.1-100.2s-48.1,44.1-88.1,98.2c-164.3,226.4-348.6,248.4-546.9,64.1c-36.1-34.1-70.1-62.1-72.1-62.1c-4,0-14,42.1-22,92.1c-12,86.1-16,90.1-66.1,80.1c-30-6-96.2-16-148.2-24c-76.1-10-96.2-20-96.2-50.1c0-40.1,472.8-3119.1,490.8-3199.2c10-42.1,6-44.1-126.2-44.1c-106.2,0-144.2,8-168.3,36.1c-16,18-160.3,276.4-318.5,572.9C3199-248.6,3162.9-192.5,3002.7-18.3c-442.7,486.8-687.1,969.6-769.2,1528.5c-94.1,641,88.1,1418.3,468.8,1995.2c396.7,603,1059.7,1015.6,1857,1157.9C4773.6,4701.4,5216.3,4703.4,5440.7,4665.3z M5248.3,1400c84.1-42.1,238.4-38.1,316.5,10c36.1,22,98.2,84.1,138.2,140.2l74.1,102.2l118.2-116.2c66.1-64.1,128.2-130.2,138.2-148.2c10-22-48.1-492.8-172.3-1382.3C5757.1-735.4,5669-1344.4,5665-1346.4c-4-4-1071.7-12-1210-10c-24,2-48.1,18-54.1,38.1c-12,38.1-412.7,2622.3-412.7,2662.3c0,24,230.4,292.5,258.4,300.5c6,2,42.1-40.1,80.1-92.1C4435,1402,4505.1,1364,4649.4,1374c104.2,8,130.2,18,190.3,76.1c38.1,38.1,94.2,102.2,122.2,144.2l52.1,74.1l88.1-118.2C5150.2,1484.2,5216.3,1418.1,5248.3,1400z"/><path d="M3607.7-2009.5c0-132.2,78.1-1728.8,92.2-1883.1l12-126.2h1290.1H6292l8,44.1c6,26,28,474.8,52.1,997.6c22,522.8,46.1,975.6,50.1,1007.6l10,54.1H5009.9H3607.7V-2009.5z M5060-2245.9c-40.1-14-1053.7-230.4-1081.7-230.4c-24,0-30.1,28-30.1,120.2v120.2l566.9-2C4825.6-2237.9,5072-2241.9,5060-2245.9z M6067.6-2424.2c12.1-104.2-12-148.2-92.1-172.3c-116.2-34.1-1933.1-420.7-1971.2-420.7c-28,0-36.1,18-38.1,80.1c-2,44.1-4,92.1-6,104.2c-2,18,330.5,98.1,1029.7,250.4c566.9,122.2,1041.7,220.4,1051.7,218.3C6053.6-2366.1,6063.7-2394.1,6067.6-2424.2z M6031.6-3017.1c0-86.1-6-104.2-44.1-120.2c-54.1-24.1-1907.1-420.7-1961.2-420.7c-32.1,0-38.1,16-38.1,88.1c0,48.1,12,96.2,26,110.2c24,18,1893.1,434.7,1983.2,440.7C6025.6-2917,6031.6-2935,6031.6-3017.1z M6011.6-3588v-110.2l-534.9,2l-536.9,2l480.8,106.2c264.4,58.1,504.8,106.2,536.8,108.2C6009.6-3477.9,6011.6-3479.9,6011.6-3588z"/><path d="M4088.5-4343.3c0-88.1,82.1-220.4,178.3-282.5c46.1-30,152.3-78.1,236.4-108.2c146.2-52.1,178.3-56.1,496.8-56.1h340.6l196.3,84.1c296.5,126.2,362.6,186.3,378.6,346.6l6,70.1l-915.5,6l-917.5,4V-4343.3z"/></g></g>
</svg>