<?xml version="1.0" encoding="utf-8"?>
<!-- Svg Vector Icons : http://www.onlinewebfonts.com/icon -->
<!DOCTYPE svg PUBLIC "-//W3C//DTD SVG 1.1//EN" "http://www.w3.org/Graphics/SVG/1.1/DTD/svg11.dtd">
<svg version="1.1" xmlns="http://www.w3.org/2000/svg" xmlns:xlink="http://www.w3.org/1999/xlink" x="0px" y="0px" viewBox="0 0 1000 1000" enable-background="new 0 0 1000 1000" xml:space="preserve">
<metadata> Svg Vector Icons : http://www.onlinewebfonts.com/icon </metadata>
<g><g><g><g><g><g><path d="M553.6,980.2h-103c-15.5,0-20.9,0-73.7-130.8l-40.8-16.6c-111.1,50.4-124.3,50.4-128.7,50.4h-8.5l-7.3-6.2l-73-71.4c-11.1-11.1-15-14.9,42.2-144.1l-16.6-39.4C10,574,10,568.4,10,552.6v-101c0-15.8,0-20.8,133.7-72.5l16.6-39.4C99.9,212.4,104.1,208.5,116,197.3l78.5-77l9.8-0.3c11.9,0,55.8,16,130.9,47.7l40.7-16.5c49-131.4,55-131.3,70.4-131.3h103c15.4,0,20.9,0,73.7,130.9l40.9,16.5c111-50.4,124.3-50.4,128.7-50.4h8.5l7.3,6.1l73,71.3c11.1,11.2,14.9,15-42.2,144.2l16.7,39.6C990,426,990,431.5,990,447.4v100.9c0,15.5,0,20.9-133.9,72.6l-16.5,39.5C899.7,787,895.7,791,884.5,802.3l-79.1,77.5l-9.8,0.3c-11.8,0-55.7-16.1-130.6-47.8L624,848.8C575,980.2,569.4,980.2,553.6,980.2z M461.3,938.5h81.3c9.3-19,29.5-69.4,45.6-112.8l3.3-8.6l74-29.9l8,3.4c44.1,18.8,96.2,39.6,116.5,46l57.1-55.8c-7.3-20.1-29.2-69.3-49.1-110.8l-4-8.4l30.6-73.1l8.3-3.2c44.5-17.1,96.1-38.3,115.4-48v-78.5c-19.5-9.2-70.9-28.7-115.2-44.4l-8.7-3.1l-30.8-73.1l3.7-8.2c19-42.8,40-93.2,46.8-113.6l-57.3-56c-18.5,6.4-70.2,28.6-113.9,48.5l-8.1,3.7l-74-29.8l-3.3-8.2c-17.5-43.6-39.2-94.3-49-113h-81.2c-9.4,19-29.5,69.4-45.6,112.8l-3.2,8.6l-73.8,30l-8-3.4c-44.2-18.8-96.4-39.6-116.8-46l-57,55.9c7.2,20.1,29.2,69.2,49,110.7l4.1,8.5l-30.8,73l-8.3,3.2c-44.5,17.1-96,38.3-115.3,47.9v78.6c19.5,9.2,70.8,28.8,115.1,44.6l8.6,3.1l30.8,72.9l-3.7,8.2c-19,42.7-40,93.1-46.8,113.4l57.4,56.1c18.4-6.5,70.1-28.7,113.8-48.6l8.2-3.7l73.8,30l3.3,8.2C429.8,869.2,451.5,919.7,461.3,938.5z M500,668.1c-94.5,0-171.4-75.4-171.4-168.1c0-92.6,76.9-168,171.4-168c94.4,0,171.1,75.4,171.1,168C671.1,592.7,594.4,668.1,500,668.1z M500,373.8c-71.5,0-129.6,56.6-129.6,126.2c0,69.6,58.1,126.3,129.6,126.3c71.4,0,129.5-56.7,129.5-126.3C629.4,430.4,571.4,373.8,500,373.8z"/></g></g></g></g></g><g></g><g></g><g></g><g></g><g></g><g></g><g></g><g></g><g></g><g></g><g></g><g></g><g></g><g></g><g></g></g>
</svg>