<?xml version="1.0" encoding="utf-8"?>
<!-- Svg Vector Icons : http://www.onlinewebfonts.com/icon -->
<!DOCTYPE svg PUBLIC "-//W3C//DTD SVG 1.1//EN" "http://www.w3.org/Graphics/SVG/1.1/DTD/svg11.dtd">
<svg version="1.1" xmlns="http://www.w3.org/2000/svg" xmlns:xlink="http://www.w3.org/1999/xlink" x="0px" y="0px" viewBox="0 0 1000 1000" enable-background="new 0 0 1000 1000" xml:space="preserve">
<metadata> Svg Vector Icons : http://www.onlinewebfonts.com/icon </metadata>
<g><g transform="translate(0.000000,511.000000) scale(0.100000,-0.100000)"><path d="M2454.9,4985.1c-192-68.3-369.2-236.9-439.6-414c-36.3-96-38.4-296.6-44.8-4421.3c-4.3-3877.2-2.1-4331.7,29.9-4434.1c57.6-204.9,181.4-352.1,377.7-456.6l89.6-49.1h2528.6h2528.6l89.6,49.1c200.6,106.7,326.5,260.3,379.8,467.3c49.1,183.5,49.1,8578,0,8761.5c-53.3,207-179.3,360.6-379.8,467.3l-89.6,49.1l-2496.6,4.3C3022.5,5012.8,2516.8,5008.5,2454.9,4985.1z M5324.9,4184.9c170.7-83.2,313.7-236.9,375.6-403.3c61.9-166.4,55.5-437.4-17.1-584.7c-79-157.9-204.9-285.9-362.8-362.8c-128-64-160-70.4-324.3-70.4c-151.5,0-202.7,10.7-303,57.6c-160,74.7-294.5,200.6-371.3,352.1c-85.4,168.6-98.2,426.8-32,606C4443.6,4189.1,4930.1,4379.1,5324.9,4184.9z M5263,467.7C6129.3,361,6842-212.9,7138.7-1040.9c157.9-441.7,157.9-1017.9,4.2-1474.5c-226.2-661.5-776.7-1205.6-1436.1-1421.1c-795.9-262.5-1670.8-64-2266.1,510c-362.8,352.1-582.5,753.2-674.3,1235.5c-40.5,217.6-40.5,603.9,2.1,825.8c157.9,840.7,785.2,1527.8,1602.5,1760.4C4689,484.8,4947.2,506.2,5263,467.7z"/><path d="M4802.1-1051.5c-213.4-59.8-392.6-211.3-492.9-418.2c-72.5-145.1-78.9-418.2-17.1-582.5c64-170.7,217.6-335,388.4-414c115.2-53.3,160-61.9,315.8-61.9c236.8,0,401.2,70.4,554.8,239c147.2,162.1,198.4,307.2,187.8,539.8c-10.7,209.1-55.5,324.4-189.9,478C5378.2-1077.1,5049.6-981.1,4802.1-1051.5z"/></g></g>
</svg>