<?xml version="1.0" encoding="utf-8"?>
<!-- Svg Vector Icons : http://www.onlinewebfonts.com/icon -->
<!DOCTYPE svg PUBLIC "-//W3C//DTD SVG 1.1//EN" "http://www.w3.org/Graphics/SVG/1.1/DTD/svg11.dtd">
<svg version="1.1" xmlns="http://www.w3.org/2000/svg" xmlns:xlink="http://www.w3.org/1999/xlink" x="0px" y="0px" viewBox="0 0 1000 1000" enable-background="new 0 0 1000 1000" xml:space="preserve">
<metadata> Svg Vector Icons : http://www.onlinewebfonts.com/icon </metadata>
<g><path d="M619,605V129c0-63-49-119-119-119l0,0c-70,0-126,56-126,119v476c-56,42-84,105-84,175c0,119,98,210,210,210c119,0,210-98,210-210C710,710,675,647,619,605z M500,885c-56,0-105-49-105-105l0,0l0,0c0-42,28-77,63-98V290c0-21,14-35,35-35c21,0,35,14,35,35v399c35,14,63,49,63,98C605,843,556,885,500,885z"/></g>
</svg>