<?xml version="1.0" encoding="utf-8"?>
<!-- Svg Vector Icons : http://www.onlinewebfonts.com/icon -->
<!DOCTYPE svg PUBLIC "-//W3C//DTD SVG 1.1//EN" "http://www.w3.org/Graphics/SVG/1.1/DTD/svg11.dtd">
<svg version="1.1" xmlns="http://www.w3.org/2000/svg" xmlns:xlink="http://www.w3.org/1999/xlink" x="0px" y="0px" viewBox="0 0 1000 1000" enable-background="new 0 0 1000 1000" xml:space="preserve">
<metadata> Svg Vector Icons : http://www.onlinewebfonts.com/icon </metadata>
<g><path d="M498.5,69.3c-176.2,0-352.4,71.4-478.2,194.5c-18.5,23.8-11.9,68.8,19.9,79.4c21.2,7.9,45,1.3,59.6-15.9c133.8-123.1,328.5-179.9,508.7-144.2c111.3,21.2,218.6,74.1,299.4,153.5c25.2,19.8,68.9,11.9,79.5-18.5c6.6-22.5,1.3-49-17.2-62.2C844.2,138.1,672,69.3,498.5,69.3L498.5,69.3z M490.5,274.4c-82.1,2.6-164.3,23.8-234.5,66.2c-38.4,22.5-74.2,49-102,82c-15.9,19.8-11.9,50.3,7.9,66.2c19.9,17.2,51.7,15.9,70.2-1.3C309,408,424.3,365.7,535.5,378.9c86.1,7.9,170.9,46.3,230.5,108.5c18.5,17.2,50.3,18.5,70.2,1.3c19.9-15.9,23.8-46.3,7.9-66.2c-31.8-35.7-71.5-64.8-112.6-88.7C657.4,292.9,574,273.1,490.5,274.4L490.5,274.4z M497.1,479.5c-47.7,1.3-96.7,14.6-137.8,39.7c-23.8,14.6-46.4,30.4-63.6,51.6c-21.2,33.1,9.3,80.7,47.7,78.1c23.8-1.3,38.4-23.8,57-34.4c39.7-27.8,88.8-41,136.4-29.1c35.8,5.3,66.2,27.8,91.4,52.9c18.5,15.9,49,13.2,64.9-5.3c18.5-17.2,21.2-49,2.6-68.8C645.5,512.6,572.6,476.8,497.1,479.5L497.1,479.5z"/><path d="M499.8,697.8c-64.9,0-117.9,51.6-117.9,116.4c0,63.5,53,116.4,117.9,116.4c64.9,0,116.6-52.9,116.6-116.4C616.4,749.4,564.7,697.8,499.8,697.8L499.8,697.8z"/></g>
</svg>